<?xml version="1.0" encoding="us-ascii" standalone="no"?><svg xmlns="http://www.w3.org/2000/svg" xmlns:xlink="http://www.w3.org/1999/xlink" contentStyleType="text/css" height="769px" preserveAspectRatio="none" style="width:1455px;height:769px;background:#FFFFFF;" version="1.1" viewBox="0 0 1455 769" width="1455px" zoomAndPan="magnify"><defs/><g><!--cluster frontend--><g id="cluster_frontend"><rect fill="none" height="198" rx="2.5" ry="2.5" style="stroke:#181818;stroke-width:1.0;" width="503.5" x="316" y="7"/><text fill="#000000" font-family="sans-serif" font-size="14" font-weight="bold" lengthAdjust="spacing" textLength="210" x="462.75" y="23.5332">Frontend (Next.js App Router)</text></g><!--cluster api--><g id="cluster_api"><rect fill="none" height="271" rx="2.5" ry="2.5" style="stroke:#181818;stroke-width:1.0;" width="536" x="640" y="245"/><text fill="#000000" font-family="sans-serif" font-size="14" font-weight="bold" lengthAdjust="spacing" textLength="153" x="831.5" y="261.5332">Backend API (FastAPI)</text></g><!--cluster data--><g id="cluster_data"><rect fill="none" height="163" rx="2.5" ry="2.5" style="stroke:#181818;stroke-width:1.0;" width="466" x="983" y="600"/><text fill="#000000" font-family="sans-serif" font-size="14" font-weight="bold" lengthAdjust="spacing" textLength="73" x="1179.5" y="616.5332">Data Layer</text></g><!--cluster ext--><g id="cluster_ext"><rect fill="none" height="163" rx="2.5" ry="2.5" style="stroke:#181818;stroke-width:1.0;" width="217" x="626" y="548"/><text fill="#000000" font-family="sans-serif" font-size="14" font-weight="bold" lengthAdjust="spacing" textLength="124" x="672.5" y="564.5332">External Services</text></g><!--entity Map UI--><g id="elem_Map UI"><rect fill="#F1F1F1" height="37.6094" rx="2.5" ry="2.5" style="stroke:#181818;stroke-width:0.5;" width="63" x="383.5" y="124"/><text fill="#000000" font-family="sans-serif" font-size="14" lengthAdjust="spacing" textLength="43" x="393.5" y="148.5332">Map UI</text></g><!--entity Analytics Dashboard--><g id="elem_Analytics Dashboard"><rect fill="#F1F1F1" height="37.6094" rx="2.5" ry="2.5" style="stroke:#181818;stroke-width:0.5;" width="150" x="340" y="51"/><text fill="#000000" font-family="sans-serif" font-size="14" lengthAdjust="spacing" textLength="130" x="350" y="75.5332">Analytics Dashboard</text></g><!--entity Grievance Feed--><g id="elem_Grievance Feed"><rect fill="#F1F1F1" height="37.6094" rx="2.5" ry="2.5" style="stroke:#181818;stroke-width:0.5;" width="122" x="673.5" y="124"/><text fill="#000000" font-family="sans-serif" font-size="14" lengthAdjust="spacing" textLength="102" x="683.5" y="148.5332">Grievance Feed</text></g><!--entity Request Router--><g id="elem_Request Router"><rect fill="#F1F1F1" height="37.6094" rx="2.5" ry="2.5" style="stroke:#181818;stroke-width:0.5;" width="120" x="674.5" y="435"/><text fill="#000000" font-family="sans-serif" font-size="14" lengthAdjust="spacing" textLength="100" x="684.5" y="459.5332">Request Router</text></g><!--entity Location Extractor--><g id="elem_Location Extractor"><rect fill="#F1F1F1" height="37.6094" rx="2.5" ry="2.5" style="stroke:#181818;stroke-width:0.5;" width="134" x="667.5" y="362"/><text fill="#000000" font-family="sans-serif" font-size="14" lengthAdjust="spacing" textLength="114" x="677.5" y="386.5332">Location Extractor</text></g><!--entity Sentiment Analyzer--><g id="elem_Sentiment Analyzer"><rect fill="#F1F1F1" height="37.6094" rx="2.5" ry="2.5" style="stroke:#181818;stroke-width:0.5;" width="141" x="664" y="289"/><text fill="#000000" font-family="sans-serif" font-size="14" lengthAdjust="spacing" textLength="121" x="674" y="313.5332">Sentiment Analyzer</text></g><!--entity Geospatial Clustering--><g id="elem_Geospatial Clustering"><rect fill="#F1F1F1" height="37.6094" rx="2.5" ry="2.5" style="stroke:#181818;stroke-width:0.5;" width="156" x="996" y="435"/><text fill="#000000" font-family="sans-serif" font-size="14" lengthAdjust="spacing" textLength="136" x="1006" y="459.5332">Geospatial Clustering</text></g><!--entity Data Validator--><g id="elem_Data Validator"><rect fill="#F1F1F1" height="37.6094" rx="2.5" ry="2.5" style="stroke:#181818;stroke-width:0.5;" width="110" x="1019" y="362"/><text fill="#000000" font-family="sans-serif" font-size="14" lengthAdjust="spacing" textLength="90" x="1029" y="386.5332">Data Validator</text></g><!--entity db--><g id="elem_db"><path d="M1258,646.5 C1258,636.5 1345.5,636.5 1345.5,636.5 C1345.5,636.5 1433,636.5 1433,646.5 L1433,673.1094 C1433,683.1094 1345.5,683.1094 1345.5,683.1094 C1345.5,683.1094 1258,683.1094 1258,673.1094 L1258,646.5 " fill="#F1F1F1" style="stroke:#181818;stroke-width:0.5;"/><path d="M1258,646.5 C1258,656.5 1345.5,656.5 1345.5,656.5 C1345.5,656.5 1433,656.5 1433,646.5 " fill="none" style="stroke:#181818;stroke-width:0.5;"/><text fill="#000000" font-family="sans-serif" font-size="14" lengthAdjust="spacing" textLength="155" x="1268" y="675.0332">Supabase (PostgreSQL)</text></g><!--entity supabaseRest--><g id="elem_supabaseRest"><rect fill="#F1F1F1" height="37.6094" rx="2.5" ry="2.5" style="stroke:#181818;stroke-width:0.5;" width="150" x="999" y="636"/><text fill="#000000" font-family="sans-serif" font-size="14" lengthAdjust="spacing" textLength="130" x="1009" y="660.5332">Supabase REST API</text></g><!--entity supabaseStorage--><g id="elem_supabaseStorage"><rect fill="#F1F1F1" height="37.6094" rx="2.5" ry="2.5" style="stroke:#181818;stroke-width:0.5;" width="138" x="1005" y="709"/><text fill="#000000" font-family="sans-serif" font-size="14" lengthAdjust="spacing" textLength="118" x="1015" y="733.5332">Supabase Storage</text></g><!--entity tiles--><g id="elem_tiles"><rect fill="#F1F1F1" height="37.6094" rx="2.5" ry="2.5" style="stroke:#181818;stroke-width:0.5;" width="185" x="642" y="584"/><text fill="#000000" font-family="sans-serif" font-size="14" lengthAdjust="spacing" textLength="165" x="652" y="608.5332">OpenStreetMap/Map Tiles</text></g><!--entity reddit--><g id="elem_reddit"><rect fill="#F1F1F1" height="37.6094" rx="2.5" ry="2.5" style="stroke:#181818;stroke-width:0.5;" width="144" x="662.5" y="657"/><text fill="#000000" font-family="sans-serif" font-size="14" lengthAdjust="spacing" textLength="124" x="672.5" y="681.5332">Reddit Data Source</text></g><!--entity user--><g id="elem_user"><ellipse cx="57.5" cy="110.5" fill="#F1F1F1" rx="8" ry="8" style="stroke:#181818;stroke-width:0.5;"/><path d="M57.5,118.5 L57.5,145.5 M44.5,126.5 L70.5,126.5 M57.5,145.5 L44.5,160.5 M57.5,145.5 L70.5,160.5 " fill="none" style="stroke:#181818;stroke-width:0.5;"/><text fill="#000000" font-family="sans-serif" font-size="14" lengthAdjust="spacing" textLength="103" x="6" y="176.5332">Community User</text></g><!--entity admin--><g id="elem_admin"><ellipse cx="57.5" cy="223.5" fill="#F1F1F1" rx="8" ry="8" style="stroke:#181818;stroke-width:0.5;"/><path d="M57.5,231.5 L57.5,258.5 M44.5,239.5 L70.5,239.5 M57.5,258.5 L44.5,273.5 M57.5,258.5 L70.5,273.5 " fill="none" style="stroke:#181818;stroke-width:0.5;"/><text fill="#000000" font-family="sans-serif" font-size="14" lengthAdjust="spacing" textLength="89" x="13" y="289.5332">Analyst/Admin</text></g><g id="elem_GMN30"><path d="M1003.5,540.5 L1003.5,583.2031 L1144.5,583.2031 L1144.5,550.5 L1134.5,540.5 L1003.5,540.5 " fill="#FEFFDD" style="stroke:#181818;stroke-width:0.5;"/><path d="M1134.5,540.5 L1134.5,550.5 L1144.5,550.5 L1134.5,540.5 " fill="#FEFFDD" style="stroke:#181818;stroke-width:1.0;"/><text fill="#000000" font-family="sans-serif" font-size="13" lengthAdjust="spacing" textLength="72" x="1009.5" y="558.9951">NLP runs on</text><text fill="#000000" font-family="sans-serif" font-size="13" lengthAdjust="spacing" textLength="120" x="1009.5" y="575.3467">Cebuano/Bislish text</text></g><!--link user to frontend--><g id="link_user_frontend"><path d="M109.06,148.96 C157.365,156.57 231.99,168.3275 295.325,178.3062 C299.2834,178.9299 303.1978,179.5466 307.0588,180.155 C308.9894,180.4591 310.9066,180.7612 312.8093,181.061 C313.7607,181.2109 308.7815,180.4264 309.7255,180.5751 " fill="none" id="user-to-frontend" style="stroke:#181818;stroke-width:1.0;"/><polygon fill="#181818" points="315.6524,181.5089,307.3846,176.157,310.7133,180.7308,306.1395,184.0595,315.6524,181.5089" style="stroke:#181818;stroke-width:1.0;"/><text fill="#000000" font-family="sans-serif" font-size="13" lengthAdjust="spacing" textLength="151" x="140" y="151.4951">browse map and analytics</text></g><!--link admin to frontend--><g id="link_admin_frontend"><path d="M102.09,247.01 C148.815,239.52 225.105,227.2875 290.5375,216.7963 C306.8956,214.1734 322.5752,211.6595 336.9445,209.3556 C344.1292,208.2037 350.9863,207.1043 357.4369,206.0701 C359.0496,205.8116 360.6368,205.5571 362.1974,205.3069 C362.5876,205.2443 357.0517,206.1318 357.4385,206.0698 " fill="none" id="admin-to-frontend" style="stroke:#181818;stroke-width:1.0;"/><polygon fill="#181818" points="363.3629,205.12,353.8431,202.5952,358.4259,205.9115,355.1095,210.4943,363.3629,205.12" style="stroke:#181818;stroke-width:1.0;"/><text fill="#000000" font-family="sans-serif" font-size="13" lengthAdjust="spacing" textLength="138" x="146.5" y="214.4951">manage reports and QA</text></g><!--link frontend to api--><g id="link_frontend_api"><path d="M431.3265,205.1881 C434.2736,206.8359 437.5843,208.723 441.2036,210.8409 C455.6809,219.3125 475.0969,231.4763 495.9387,246.785 C537.6225,277.4025 585.01,320.6 610,372 C621.4,395.44 600.47,469.72 618,489 C622.3075,493.7362 627.3038,497.5945 632.754,500.7192 C634.1166,501.5004 635.5075,502.2357 636.9232,502.9274 C637.631,503.2733 638.345,503.6082 639.0647,503.9326 C639.2447,504.0137 633.9362,501.6705 634.1169,501.7502 " fill="none" id="frontend-to-api" style="stroke:#181818;stroke-width:1.0;"/><polygon fill="#181818" points="639.6056,504.1738,632.9883,496.8793,635.0317,502.1542,629.7568,504.1976,639.6056,504.1738" style="stroke:#181818;stroke-width:1.0;"/><text fill="#000000" font-family="sans-serif" font-size="13" lengthAdjust="spacing" textLength="79" x="525.5" y="265.4951">HTTPS JSON</text></g><!--link api to supabaseRest--><g id="link_api_supabaseRest"><path d="M750.4667,516.0471 C750.5911,516.1134 750.7163,516.18 750.8421,516.2469 C751.8485,516.7824 752.8968,517.3393 753.9849,517.9162 C756.1611,519.07 758.4961,520.3039 760.9715,521.6066 C765.9223,524.212 771.435,527.0925 777.3625,530.1575 C801.0725,542.4175 831.42,557.63 859,570 C913.71,594.54 972.1656,617.3938 1015.8356,633.8538 " fill="none" id="api-to-supabaseRest" style="stroke:#181818;stroke-width:1.0;"/><polygon fill="#181818" points="1021.45,635.97,1014.4391,629.0528,1016.7713,634.2065,1011.6176,636.5387,1021.45,635.97" style="stroke:#181818;stroke-width:1.0;"/><text fill="#000000" font-family="sans-serif" font-size="13" lengthAdjust="spacing" textLength="56" x="884.5" y="566.4951">read/write</text></g><!--link supabaseRest to db--><g id="link_supabaseRest_db"><path d="M1149.36,656.38 C1183.01,657 1217.001,657.6403 1251.991,658.2803 " fill="none" id="supabaseRest-to-db" style="stroke:#181818;stroke-width:1.0;"/><polygon fill="#181818" points="1257.99,658.39,1249.0647,654.2261,1252.9908,658.2986,1248.9184,662.2247,1257.99,658.39" style="stroke:#181818;stroke-width:1.0;"/><text fill="#000000" font-family="sans-serif" font-size="13" lengthAdjust="spacing" textLength="26" x="1201" y="653.4951">SQL</text></g><!--link api to supabaseStorage--><g id="link_api_supabaseStorage"><path d="M768.8371,516.0348 C770.2475,516.4721 771.684,516.9302 773.1428,517.4097 C776.0603,518.3687 779.0667,519.4133 782.1313,520.5487 C806.6475,529.6325 834.88,544.535 851,568 C868.98,594.17 840.36,613.29 859,639 C892.27,684.89 922.58,670.43 975,692 C989.08,697.79 998.8387,701.589 1013.1687,706.859 " fill="none" id="api-to-supabaseStorage" style="stroke:#181818;stroke-width:1.0;"/><polygon fill="#181818" points="1018.8,708.93,1011.7337,702.0694,1014.1073,707.2042,1008.9725,709.5777,1018.8,708.93" style="stroke:#181818;stroke-width:1.0;"/><text fill="#000000" font-family="sans-serif" font-size="13" lengthAdjust="spacing" textLength="105" x="860" y="635.4951">upload/export files</text></g><!--link api to tiles--><g id="link_api_tiles"><path d="M734.5,516.1114 C734.5,516.4032 734.5,516.7015 734.5,517.0063 C734.5,517.6158 734.5,518.2508 734.5,518.9097 C734.5,524.1806 734.5,530.9763 734.5,538.4175 C734.5,553.3 734.5,564.765 734.5,577.78 " fill="none" id="api-to-tiles" style="stroke:#181818;stroke-width:1.0;"/><polygon fill="#181818" points="734.5,583.78,738.5,574.78,734.5,578.78,730.5,574.78,734.5,583.78" style="stroke:#181818;stroke-width:1.0;"/><text fill="#000000" font-family="sans-serif" font-size="13" lengthAdjust="spacing" textLength="85" x="680" y="551.6751">fetch basemap</text></g><!--link frontend to tiles--><g id="link_frontend_tiles"><path d="M419.2715,205.4688 C419.3411,205.645 419.4117,205.8238 419.4835,206.0052 C419.7705,206.7307 420.075,207.4971 420.3968,208.3031 C422.9715,214.7518 426.6561,223.7432 431.3934,234.7133 C440.8681,256.6534 454.5538,286.5081 471.9925,319.7637 C506.87,386.275 556.76,466.39 618,524 C643.04,547.55 670.5588,566.0903 694.7488,580.7503 " fill="none" id="frontend-to-tiles" style="stroke:#181818;stroke-width:1.0;"/><polygon fill="#181818" points="699.88,583.86,694.2563,575.7746,695.604,581.2686,690.11,582.6163,699.88,583.86" style="stroke:#181818;stroke-width:1.0;"/><text fill="#000000" font-family="sans-serif" font-size="13" lengthAdjust="spacing" textLength="64" x="533" y="406.4951">render tiles</text></g><!--link reddit to api--><g id="link_reddit_api"><path d="M662.34,664.33 C596.31,650.35 513.7,622.52 548,574 C560.2925,556.61 577.57,543.7719 596.6969,534.3009 C606.2603,529.5655 616.2861,525.6718 626.3823,522.4718 C631.4304,520.8719 636.496,519.4453 641.5303,518.1737 C644.0475,517.5378 646.5568,516.9408 649.0521,516.3801 C649.364,516.31 643.8175,517.5373 644.129,517.4684 " fill="none" id="reddit-to-api" style="stroke:#181818;stroke-width:1.0;"/><polygon fill="#181818" points="649.9872,516.1715,640.3353,514.2114,645.1053,517.2522,642.0645,522.0223,649.9872,516.1715" style="stroke:#181818;stroke-width:1.0;"/><text fill="#000000" font-family="sans-serif" font-size="13" lengthAdjust="spacing" textLength="88" x="521" y="588.4951">batch ingestion</text></g><!--link api to GMN30--><g id="link_api_GMN30"><path d="M785.5343,516.0086 C786.2126,516.1172 786.8961,516.2265 787.5846,516.3367 C790.3388,516.7774 793.1742,517.2311 796.0838,517.6966 C807.722,519.5588 820.5466,521.6106 834.1063,523.78 C888.345,532.4575 954.345,543.015 1003.22,550.83 " fill="none" id="api-GMN30" style="stroke:#181818;stroke-width:1.0;stroke-dasharray:7.0,7.0;"/></g><!--SRC=[PLF1Sjf03BtlLsWuqKFAFOVE41BIT2WXcFJIoK6sXTd6tdLtvGJQwRzNMXiQqWiZz9wafwTrJLi6zX1ijMCeRQ22hNScFblNOi062j-qtf7ZZ0yrWHBGLJKPWmNx0AEPRvhEMJx0OwGm0epGIN24fmxhG-J9j6oiIoXgPCof4upcmJicLy9uINl- -2F2j6rXxJkcy27LR8-CtmRW-rTiuV7kISFKdcqHuHhZBlSOofI_3PPUq1K4So99_JaRU8N5itQRhkvWFCV84lI3iBNzZ3Nzx2Zoe2BrNFW2rHsusND8wwLq9kROHduWYVari6_9nrRuMCEixg8qiQvAo3KomZUiROcfnxcsX2xmC7XPwbzLf46EKHXPr_RHUEKZLu6oXqMllioJe2E-liaskkEJOd78hcMhCrOc8h2YCzAGUoTDzgOWEq96uSKM5DDGELblsNrBBkD0n7AWYHvfOskAgJ5hrFjQbfOXRPdvBXJzu93IEayV3rnSVFftyql8WtyLfOsqH4dWyUWclQNtx4RmIfzgwmF7LF4mDUR4KBhU-H8-RpQh3BvazqkZ2GNUsYICG5XENeDbCcU8KijS2EBzVxM3Uu9sRUsb0UrL2coJ2ITwyaH8M-9Y1ree2vxBF5A29CIMtaNJc_LcZnorWxmlaQQVht6UQVYe_LP9PhbOGUXS185db7Ve_EJAnjh67R2SqEX8BJD_0G00]--></g></svg>